<svg id="Capa_1" data-name="Capa 1" xmlns="http://www.w3.org/2000/svg" viewBox="0 0 10.58 14.27"><title>chat</title><g id="Layer_2" data-name="Layer 2"><g id="Comment"><path d="M8.22,4.17h-6A1.46,1.46,0,0,0,.72,5.63V9.52A1.47,1.47,0,0,0,2.19,11h.46L2,12.41a.45.45,0,0,0,.19.61.44.44,0,0,0,.6-.19.25.25,0,0,0,0-.11l.86-2h0v0s0,0,0-.05V10.4s0,0,0,0l0,0,0,0,0,0,0,0,0,0,0,0,0,0,0,0h0l-.05,0H2.19a.56.56,0,0,1-.57-.56V5.63a.57.57,0,0,1,.57-.57h6a.57.57,0,0,1,.57.57V9.52a.56.56,0,0,1-.57.56H5.12a.45.45,0,1,0,0,.9h3.1A1.47,1.47,0,0,0,9.69,9.52V5.63A1.46,1.46,0,0,0,8.22,4.17Z" style="fill:#111"/><path d="M6.64,6.77a.45.45,0,0,0-.45-.45H3a.45.45,0,0,0,0,.89H6.19A.45.45,0,0,0,6.64,6.77Z" style="fill:#111"/></g></g><path d="M3,7.93H5.3a.45.45,0,0,1,.44.45h0a.45.45,0,0,1-.44.45H3a.45.45,0,0,1-.44-.45h0A.45.45,0,0,1,3,7.93Z" style="fill:#e52421"/></svg>