<?xml version="1.0" encoding="utf-8"?>
<!-- Generator: Adobe Illustrator 24.0.1, SVG Export Plug-In . SVG Version: 6.00 Build 0)  -->
<svg version="1.1" id="Capa_1" xmlns="http://www.w3.org/2000/svg" xmlns:xlink="http://www.w3.org/1999/xlink" x="0px" y="0px"
	 width="190.4px" height="105.8px" viewBox="0 0 190.4 105.8" style="enable-background:new 0 0 190.4 105.8;" xml:space="preserve"
	>
<style type="text/css">
	.st0{fill:#FFFFFF;}
	.st1{fill:#E52421;}
</style>
<g>
	<path class="st0" d="M71.5,37.5c0,5.6,1.7,5.7,4.6,5.7v0.6H63.9v-0.6c2.2,0,3.1-1.3,3.1-5.7V16.1c0-3.2-0.6-4.4-3-4.4v-0.6h7.6
		V37.5z M75.1,11.8v-0.6c7.6,0.2,12.6,1.9,12.6,9.3c0,7.3-5,9-12.6,9.2v-0.6c4.4-0.2,7.6-1.4,7.6-8.6C82.7,13.3,79.4,12,75.1,11.8z"
		/>
	<path class="st0" d="M114.8,32.9h0.6c0,8.3-5.5,11.4-11.3,11.4c-6,0-10.8-4-10.8-11.5V15.8c0-3.1-1.2-4-3.2-4v-0.6h11.5v0.6
		c-2,0-3.7,0.4-3.7,4.1v17.2c0,5.8,3.4,9.1,8.5,9.1C111.2,42.2,114.8,38.9,114.8,32.9z M109.4,11.2h12v0.6c-6.1,0-5.9,4.1-5.9,8.5
		h-0.6c0-4.4-0.1-8.5-5.5-8.5V11.2z"/>
	<path class="st0" d="M131.2,39c0,3.2,1.1,4.2,3,4.2v0.6h-10.4v-0.6c2,0,2.9-0.9,2.9-4.8V15.4c0-2.9-0.8-3.5-2.9-3.5v-0.6h7.4V39z
		 M152,43.3v0.6h-3.5c-6,0-5.2,0-7.9-10.1c-0.9-3.7-3.8-4.5-5.7-4.8v-0.7c4.1-0.1,7-1.1,7-8.2c0-7.2-3.1-8.1-7-8.2v-0.6
		c7.8,0.2,12.2,1.7,12.2,8.8c0,6.3-3.7,8.2-8.6,8.5c3.1,0.1,6.5,0.4,8.6,10.6C148,42.7,150.8,43.2,152,43.3z"/>
	<path class="st0" d="M166.7,43.5v0.6c-8.9-0.8-13.2-7.8-13.2-16.4s4.3-16,13.2-16.9v0.6c-4.6,0.8-7.9,5-7.9,16.2
		C158.8,39.1,162,42.8,166.7,43.5z M170.3,44.2v-0.6c4.6-0.7,7.9-4.4,7.9-15.8c0-11.3-3.3-15.4-7.9-16.2v-0.6
		c8.9,0.9,13.3,8.2,13.3,16.9C183.6,36.4,179.2,43.4,170.3,44.2z"/>
	<path class="st0" d="M34.1,61.6v8.2h-0.6c-0.2-7.5-7.9-7.6-8.6-7.6h-2.7v27.5c0,3.1,1.4,3.9,3.4,3.9v0.6H14.3v-0.6
		c1.9,0,3.3-0.8,3.3-3.9V62.2h-2.7c-1.4,0-8.3,0.1-8.5,7.6H5.7v-8.2H34.1z"/>
	<path class="st0" d="M43.8,94.2h-7.2v-0.6c1.9,0,2.5-1.7,2.5-4.8V66.5c0-2.9-0.4-4.4-2.5-4.4v-0.6h7.2V94.2z M47.4,62.2v-0.6h11.8
		v8.3h-0.6C58.2,63.2,52.4,62.3,47.4,62.2z M47.4,78.1v-0.7c2.3-0.1,5.6-0.6,5.9-4.6h0.6v10h-0.6C52.9,78.7,49.7,78.1,47.4,78.1z
		 M59.8,94.2H47.4v-0.6c5.1-0.1,11-1,11.8-9h0.6V94.2z"/>
	<path class="st0" d="M93.9,93.6v0.6H83.3v-0.6c2.5,0,2-2.6,0.9-5.2l-1.6-4h-12c-1.3,3.7-3.3,9.5,3.2,9.3v0.6H63.5v-0.6
		c1.7,0,2.8-0.3,6.5-9.9h12.5L76,67.3l2.2-5.8h0.5c5.7,13.6,11.4,28.3,11.4,28.3C91.6,93.5,92.6,93.5,93.9,93.6z"/>
	<path class="st0" d="M121.5,61.6v8.2h-0.6c-0.2-7.5-7.9-7.6-8.6-7.6h-2.7v27.5c0,3.1,1.4,3.9,3.4,3.9v0.6h-11.3v-0.6
		c1.9,0,3.3-0.8,3.3-3.9V62.2h-2.7c-1.4,0-8.3,0.1-8.5,7.6h-0.6v-8.2H121.5z"/>
	<path class="st0" d="M131.2,89.4c0,3.2,1.1,4.2,3,4.2v0.6h-10.4v-0.6c2,0,2.9-0.9,2.9-4.8V65.7c0-2.9-0.8-3.5-2.9-3.5v-0.6h7.4
		V89.4z M152,93.6v0.6h-3.5c-6,0-5.2,0-7.9-10.1c-0.9-3.7-3.8-4.5-5.7-4.8v-0.7c4.1-0.1,7-1.1,7-8.2c0-7.2-3.1-8.1-7-8.2v-0.6
		c7.8,0.2,12.2,1.7,12.2,8.8c0,6.3-3.7,8.2-8.6,8.5c3.1,0.1,6.5,0.4,8.6,10.6C148,93,150.8,93.5,152,93.6z"/>
	<path class="st0" d="M166.7,93.9v0.6c-8.9-0.8-13.2-7.8-13.2-16.4c0-8.6,4.3-16,13.2-16.9v0.6c-4.6,0.8-7.9,5-7.9,16.2
		C158.8,89.4,162,93.2,166.7,93.9z M170.3,94.5v-0.6c4.6-0.7,7.9-4.4,7.9-15.8c0-11.3-3.3-15.4-7.9-16.2v-0.6
		c8.9,0.9,13.3,8.2,13.3,16.9C183.6,86.8,179.2,93.7,170.3,94.5z"/>
</g>
<g>
	<g>
		<path class="st1" d="M11.4,12.1v17.2h8.9c-0.1,2.1-0.8,3.9-2.1,5.4c-1.2,1.5-3.5,3-6.8,4.6l4.1,7.6c5.3-2.3,9-5,11.2-8.1
			c2.2-3,3.3-7.2,3.3-12.5V12.1H11.4z M18.2,20.5c0,0.4-0.1,0.9-0.3,1.4c-0.2,0.5-0.5,1-0.8,1.6c-0.3,0.5-0.8,1-1.2,1.4
			c-0.5,0.5-1,0.8-1.6,1.1c0,0,0-0.1,0-0.3c0-0.2,0-0.5,0-0.8c0-0.3,0-0.6,0-1c0-0.3,0-0.7,0-0.9c-0.6-0.2-1-0.6-1.3-1.1
			c-0.3-0.5-0.5-1.1-0.5-1.7c0-0.4,0.1-0.8,0.3-1.1c0.2-0.4,0.4-0.7,0.6-0.9c0.3-0.3,0.6-0.5,0.9-0.6c0.4-0.2,0.7-0.2,1.1-0.2
			c0.4,0,0.8,0.1,1.1,0.3c0.4,0.2,0.7,0.4,0.9,0.7c0.3,0.3,0.5,0.6,0.6,0.9S18.2,20,18.2,20.5L18.2,20.5z"/>
	</g>
	<g>
		<path class="st1" d="M35.4,21.7V36c0,5.3,1.1,9.4,3.3,12.5c2.2,3,5.9,5.7,11.2,8.1l4.1-7.6c-3.3-1.5-5.6-3.1-6.8-4.6
			c-1.2-1.5-1.9-3.3-2.1-5.4h8.9V21.7H35.4z M47.2,30c0-0.4,0.1-0.8,0.2-1.1c0.2-0.4,0.4-0.7,0.6-0.9c0.3-0.3,0.6-0.5,0.9-0.7
			c0.4-0.2,0.7-0.3,1.1-0.3c0.4,0,0.8,0.1,1.1,0.2c0.4,0.2,0.7,0.4,0.9,0.6c0.3,0.3,0.5,0.6,0.6,0.9c0.2,0.4,0.2,0.7,0.3,1.1
			c0,0.6-0.1,1.2-0.5,1.7c-0.3,0.5-0.8,0.9-1.3,1.1c0,0.3,0,0.6,0,0.9c0,0.3,0,0.7,0,1c0,0.3,0,0.6,0,0.8c0,0.2,0,0.3,0,0.3
			c-0.6-0.3-1.1-0.7-1.6-1.1c-0.5-0.5-0.9-0.9-1.2-1.4c-0.3-0.5-0.6-1-0.8-1.6C47.3,31,47.2,30.6,47.2,30L47.2,30z"/>
	</g>
</g>
</svg>
