<svg id="Capa_1" data-name="Capa 1" xmlns="http://www.w3.org/2000/svg" viewBox="0 0 33.19 38.48"><title>user</title><g id="Layer_2" data-name="Layer 2"><g id="Avatar"><path d="M32.09,30.2l-.85-4A7.9,7.9,0,0,0,27.62,21l-5.1-3.16A7.47,7.47,0,0,0,24,14.23l.4-3.82a7.39,7.39,0,0,0-6.56-8.13,6.79,6.79,0,0,0-.78,0h-.82A7.39,7.39,0,0,0,8.8,9.63a6.79,6.79,0,0,0,0,.78l.41,3.82a7.47,7.47,0,0,0,1.43,3.63L5.57,21A8,8,0,0,0,2,26.17l-.85,4a4.33,4.33,0,0,0,3.35,5.14,4.41,4.41,0,0,0,.89.1H27.85a4.34,4.34,0,0,0,4.34-4.34A4.59,4.59,0,0,0,32.09,30.2ZM13.16,6.89a4,4,0,0,1,3-1.33H17a4.08,4.08,0,0,1,4.07,4.06,3.25,3.25,0,0,1,0,.44l-.4,3.81a4.07,4.07,0,0,1-8.1,0l-.4-3.81A4,4,0,0,1,13.16,6.89ZM28.64,31.72a1,1,0,0,1-.79.38H5.34a1,1,0,0,1-.79-.38,1,1,0,0,1-.22-.83l.85-4a4.7,4.7,0,0,1,2.14-3l6.06-3.75a7.35,7.35,0,0,0,6.44,0l6.06,3.75a4.77,4.77,0,0,1,2.12,3l.85,4a1,1,0,0,1-.21.85Z" style="fill:#111"/></g></g><path d="M19.58,26.14H22.9a1.66,1.66,0,0,1,1.66,1.66h0a1.66,1.66,0,0,1-1.66,1.66H19.58a1.66,1.66,0,0,1-1.66-1.66h0A1.66,1.66,0,0,1,19.58,26.14Z" style="fill:#e52421"/></svg>